<svg id="visual" viewBox="0 0 1920 1080" width="1920" height="1080" xmlns="http://www.w3.org/2000/svg" xmlns:xlink="http://www.w3.org/1999/xlink" version="1.1"><rect x="0" y="0" width="1920" height="1080" fill="#3d373c"></rect><defs><linearGradient id="grad1_0" x1="43.8%" y1="0%" x2="100%" y2="100%"><stop offset="14.444444444444446%" stop-color="#3d373c" stop-opacity="1"></stop><stop offset="85.55555555555554%" stop-color="#3d373c" stop-opacity="1"></stop></linearGradient></defs><defs><linearGradient id="grad2_0" x1="0%" y1="0%" x2="56.3%" y2="100%"><stop offset="14.444444444444446%" stop-color="#3d373c" stop-opacity="1"></stop><stop offset="85.55555555555554%" stop-color="#3d373c" stop-opacity="1"></stop></linearGradient></defs><g transform="translate(1920, 0)"><path d="M0 864C-111.1 841.1 -222.2 818.2 -320.3 773.3C-418.4 728.4 -503.4 661.6 -586.9 586.9C-670.4 512.2 -752.3 429.8 -798.2 330.6C-844.2 231.5 -854.1 115.8 -864 0L0 0Z" fill="#1c161c"></path></g><g transform="translate(0, 1080)"><path d="M0 -864C118.3 -859 236.6 -854.1 330.6 -798.2C424.7 -742.4 494.4 -635.7 540.2 -540.2C586 -444.8 607.8 -360.6 657.8 -272.5C707.8 -184.3 785.9 -92.2 864 0L0 0Z" fill="#1c161c"></path></g></svg>