<svg id="visual" viewBox="0 0 1920 1080" width="1920" height="1080" xmlns="http://www.w3.org/2000/svg" xmlns:xlink="http://www.w3.org/1999/xlink" version="1.1"><rect x="0" y="0" width="1920" height="1080" fill="#e04686"></rect><path d="M0 738L45.7 731.8C91.3 725.7 182.7 713.3 274.2 724.7C365.7 736 457.3 771 548.8 790C640.3 809 731.7 812 823 798.5C914.3 785 1005.7 755 1097 738.5C1188.3 722 1279.7 719 1371.2 745.5C1462.7 772 1554.3 828 1645.8 844.3C1737.3 860.7 1828.7 837.3 1874.3 825.7L1920 814L1920 1081L1874.3 1081C1828.7 1081 1737.3 1081 1645.8 1081C1554.3 1081 1462.7 1081 1371.2 1081C1279.7 1081 1188.3 1081 1097 1081C1005.7 1081 914.3 1081 823 1081C731.7 1081 640.3 1081 548.8 1081C457.3 1081 365.7 1081 274.2 1081C182.7 1081 91.3 1081 45.7 1081L0 1081Z" fill="#c641de" stroke-linecap="round" stroke-linejoin="miter"></path></svg>