<svg id="visual" viewBox="0 0 1920 1080" width="1920" height="1080" xmlns="http://www.w3.org/2000/svg" xmlns:xlink="http://www.w3.org/1999/xlink" version="1.1"><rect x="0" y="0" width="1920" height="1080" fill="#3d373c"></rect><path d="M0 234L45.7 220.8C91.3 207.7 182.7 181.3 274.2 205.8C365.7 230.3 457.3 305.7 548.8 330.3C640.3 355 731.7 329 823 327.8C914.3 326.7 1005.7 350.3 1097 345.7C1188.3 341 1279.7 308 1371.2 278.2C1462.7 248.3 1554.3 221.7 1645.8 218.3C1737.3 215 1828.7 235 1874.3 245L1920 255L1920 0L1874.3 0C1828.7 0 1737.3 0 1645.8 0C1554.3 0 1462.7 0 1371.2 0C1279.7 0 1188.3 0 1097 0C1005.7 0 914.3 0 823 0C731.7 0 640.3 0 548.8 0C457.3 0 365.7 0 274.2 0C182.7 0 91.3 0 45.7 0L0 0Z" fill="#1c161c" stroke-linecap="round" stroke-linejoin="miter"></path></svg>