<svg id="visual" viewBox="0 0 1920 1080" width="1920" height="1080" xmlns="http://www.w3.org/2000/svg" xmlns:xlink="http://www.w3.org/1999/xlink" version="1.1"><rect x="0" y="0" width="1920" height="1080" fill="#e04686"></rect><path d="M0 340L45.7 346.2C91.3 352.3 182.7 364.7 274.2 353.3C365.7 342 457.3 307 548.8 288C640.3 269 731.7 266 823 279.5C914.3 293 1005.7 323 1097 339.5C1188.3 356 1279.7 359 1371.2 332.5C1462.7 306 1554.3 250 1645.8 233.7C1737.3 217.3 1828.7 240.7 1874.3 252.3L1920 264L1920 0L1874.3 0C1828.7 0 1737.3 0 1645.8 0C1554.3 0 1462.7 0 1371.2 0C1279.7 0 1188.3 0 1097 0C1005.7 0 914.3 0 823 0C731.7 0 640.3 0 548.8 0C457.3 0 365.7 0 274.2 0C182.7 0 91.3 0 45.7 0L0 0Z" fill="#c641de" stroke-linecap="round" stroke-linejoin="miter"></path></svg>